HIERARCHY
ROOT Hips
{
 OFFSET 0.000000 0.000000 0.000000
 CHANNELS 6 Xposition Yposition Zposition Yrotation Xrotation Zrotation
 JOINT Chest
 {
  OFFSET 0.000000 9.585900 0.002600
  CHANNELS 3 Yrotation Xrotation Zrotation
  JOINT Chest2
  {
   OFFSET 0.000000 9.601200 -0.005300
   CHANNELS 3 Yrotation Xrotation Zrotation
   JOINT Chest3
   {
    OFFSET 0.000000 9.561800 0.000000
    CHANNELS 3 Yrotation Xrotation Zrotation
    JOINT Chest4
    {
     OFFSET 0.000000 9.552100 0.000000
     CHANNELS 3 Yrotation Xrotation Zrotation
     JOINT Neck
     {
      OFFSET 0.000000 14.453000 0.000000
      CHANNELS 3 Yrotation Xrotation Zrotation
      JOINT Head
      {
       OFFSET 0.000000 8.936500 -0.011300
       CHANNELS 3 Yrotation Xrotation Zrotation
       End Site
       {
        OFFSET 0.000000 17.073600 -0.006000
       }
      }
     }
     JOINT RightCollar
     {
      OFFSET -2.921100 9.558500 0.000000
      CHANNELS 3 Yrotation Xrotation Zrotation
      JOINT RightShoulder
      {
       OFFSET -13.519700 0.000000 0.000000
       CHANNELS 3 Yrotation Xrotation Zrotation
       JOINT RightElbow
       {
        OFFSET 0.000000 -29.696600 0.000000
        CHANNELS 3 Yrotation Xrotation Zrotation
        JOINT RightWrist
        {
         OFFSET 0.000000 -24.004700 0.000000
         CHANNELS 3 Yrotation Xrotation Zrotation
         End Site
         {
          OFFSET 0.000000 -17.728500 0.000000
         }
        }
       }
      }
     }
     JOINT LeftCollar
     {
      OFFSET 2.921100 9.558500 0.000000
      CHANNELS 3 Yrotation Xrotation Zrotation
      JOINT LeftShoulder
      {
       OFFSET 13.519700 0.000000 0.000000
       CHANNELS 3 Yrotation Xrotation Zrotation
       JOINT LeftElbow
       {
        OFFSET 0.000000 -29.696600 0.000000
        CHANNELS 3 Yrotation Xrotation Zrotation
        JOINT LeftWrist
        {
         OFFSET 0.000000 -24.004700 0.000000
         CHANNELS 3 Yrotation Xrotation Zrotation
         End Site
         {
          OFFSET 0.000000 -17.728500 0.000000
         }
        }
       }
      }
     }
    }
   }
  }
 }
 JOINT RightHip
 {
  OFFSET -7.771700 -0.012900 -0.001300
  CHANNELS 3 Yrotation Xrotation Zrotation
  JOINT RightKnee
  {
   OFFSET 0.000000 -40.869800 0.001200
   CHANNELS 3 Yrotation Xrotation Zrotation
   JOINT RightAnkle
   {
    OFFSET 0.000000 -39.717900 0.002100
    CHANNELS 3 Yrotation Xrotation Zrotation
    JOINT RightToe
    {
     OFFSET 0.000000 -4.965400 11.033500
     CHANNELS 3 Yrotation Xrotation Zrotation
     End Site
     {
      OFFSET 0.000000 -1.423100 5.872300
     }
    }
   }
  }
 }
 JOINT LeftHip
 {
  OFFSET 7.771700 -0.012900 -0.001300
  CHANNELS 3 Yrotation Xrotation Zrotation
  JOINT LeftKnee
  {
   OFFSET 0.000000 -40.869800 0.001200
   CHANNELS 3 Yrotation Xrotation Zrotation
   JOINT LeftAnkle
   {
    OFFSET 0.000000 -39.717900 0.002100
    CHANNELS 3 Yrotation Xrotation Zrotation
    JOINT LeftToe
    {
     OFFSET 0.000000 -4.965400 11.033500
     CHANNELS 3 Yrotation Xrotation Zrotation
     End Site
     {
      OFFSET 0.000000 -1.423100 5.872300
     }
    }
   }
  }
 }
}
MOTION
Frames: 13
Frame Time: 0.008333
-108.699285 57.533851 -5.843422 160.921679 -3.681132 0.296576 3.526245 5.088706 0.477431 0.230682 0.185003 -0.010503 0.086590 0.329587 -0.017471 3.198504 4.931429 -0.142002 2.584868 17.074586 -2.058489 5.558981 -3.905993 -4.697965 1.632702 7.450370 1.190383 -18.276703 -17.132388 -13.628321 -121.131573 -57.961443 162.091742 -7.309237 -0.236803 -17.528928 -0.733782 5.916916 1.860404 37.194772 -12.347160 5.517253 115.678045 -56.497978 -154.810617 0.602517 4.750395 0.354015 -18.944855 -67.769996 12.398106 -30.538747 74.358720 -30.190651 -1.992345 -8.342266 -2.947390 -0.121478 0.661486 -0.023060 -1.404712 -70.814374 15.842390 44.770405 62.213309 37.878493 -17.365070 -8.639279 4.419476 -0.376799 -1.118753 -0.104481
-108.690774 57.539862 -5.859151 160.997814 -3.699382 0.270538 3.565721 5.105590 0.509945 0.234148 0.177335 -0.012165 0.177986 0.330686 -0.016844 3.146476 4.915530 -0.134722 2.468817 17.084890 -2.049295 5.372757 -3.965306 -4.655603 1.647732 7.413362 1.140337 -18.202006 -17.108333 -13.854530 -121.255551 -58.143425 162.049210 -7.277088 -0.216446 -17.428506 -0.706401 5.955534 1.899433 36.848993 -12.331388 5.638904 115.436308 -56.637109 -154.577394 0.563912 4.786165 0.134498 -18.991694 -67.737893 12.387945 -30.599389 74.373998 -30.243756 -1.987398 -8.357477 -2.960436 -0.132585 0.653536 -0.005377 -1.439991 -70.789806 15.853071 44.712974 62.234355 37.818030 -17.407385 -8.665950 4.414615 -0.320259 -1.069729 -0.099655
-108.687131 57.544942 -5.871518 161.080937 -3.696888 0.254107 3.688745 5.085447 0.533638 0.147371 0.183420 -0.010496 0.210699 0.327291 -0.016954 3.149695 4.901493 -0.127690 2.354940 17.093628 -2.036733 5.201326 -4.036871 -4.604491 1.665270 7.384518 1.095982 -18.081449 -17.038825 -14.064238 -121.381585 -58.391103 161.954550 -7.248964 -0.209301 -17.367016 -0.675260 5.997317 1.935817 36.452221 -12.260095 5.731997 115.219126 -56.789420 -154.346169 0.528464 4.816868 -0.040104 -18.962054 -67.725822 12.305728 -30.684505 74.372147 -30.296789 -2.003509 -8.400756 -2.952340 -0.120485 0.678623 -0.003984 -1.538522 -70.791316 15.879294 44.752179 62.228875 37.839904 -17.409501 -8.666596 4.413442 -0.347180 -1.066488 -0.100066
-108.690011 57.549406 -5.890557 161.197557 -3.729160 0.273566 3.717234 5.109599 0.514020 0.120687 0.185180 -0.009701 0.212974 0.326861 -0.016738 3.180555 4.889103 -0.123692 2.265193 17.070558 -2.016796 5.007109 -4.096154 -4.535366 1.684531 7.356657 1.062705 -17.926137 -16.945619 -14.261927 -121.459061 -58.708885 161.764716 -7.229133 -0.214924 -17.349528 -0.652873 6.024035 1.960490 36.016655 -12.136518 5.807235 115.047743 -56.963331 -154.129834 0.493959 4.846185 -0.165973 -18.868809 -67.698355 12.119642 -30.789471 74.392159 -30.410278 -1.994792 -8.465751 -2.897423 -0.145086 0.712086 -0.020808 -1.509436 -70.760894 15.755082 44.766975 62.239473 37.819730 -17.415266 -8.663754 4.460768 -0.387287 -1.072077 -0.119678
-108.691672 57.552172 -5.900580 161.278340 -3.723447 0.258569 3.757443 5.101178 0.523804 0.122156 0.185482 -0.009704 0.215481 0.327353 -0.016739 3.210559 4.884826 -0.122354 2.205102 16.983144 -1.991099 4.758852 -4.134740 -4.436121 1.705970 7.328704 1.043709 -17.733136 -16.846367 -14.456467 -121.464114 -59.099919 161.454481 -7.225616 -0.237329 -17.385447 -0.649255 6.024541 1.965297 35.549217 -11.968002 5.871584 114.918624 -57.165953 -153.922741 0.453324 4.887623 -0.237846 -18.924128 -67.696821 12.110254 -30.830076 74.401742 -30.454732 -1.993554 -8.478354 -2.887735 -0.154443 0.712697 -0.021296 -1.563135 -70.769219 15.752005 44.737279 62.250330 37.788103 -17.447074 -8.665191 4.467085 -0.374006 -1.065063 -0.122127
-108.693977 57.553597 -5.910079 161.359252 -3.725653 0.233050 3.795674 5.105840 0.540679 0.123741 0.186349 -0.009793 0.218277 0.328878 -0.016982 3.240051 4.889317 -0.123878 2.089327 16.926691 -1.958489 4.536631 -4.247886 -4.339379 1.736040 7.304084 1.042005 -17.501187 -16.752693 -14.657199 -121.385631 -59.567817 161.013061 -7.234902 -0.282726 -17.484922 -0.667420 5.997910 1.948475 35.055472 -11.763141 5.924091 114.809308 -57.407333 -153.705637 0.399338 4.953572 -0.250909 -18.998631 -67.684816 12.124456 -30.848748 74.413563 -30.489943 -1.987341 -8.489479 -2.865156 -0.177468 0.717188 -0.037691 -1.576129 -70.776254 15.736633 44.656302 62.275949 37.722642 -17.532579 -8.670224 4.455310 -0.279039 -1.048898 -0.091849
-108.697844 57.553699 -5.920137 161.445020 -3.741056 0.203253 3.769639 5.122610 0.563044 0.179051 0.191242 -0.018931 0.220843 0.330841 -0.017383 3.265066 4.898704 -0.127737 1.964592 16.860454 -1.918663 4.295572 -4.379715 -4.226294 1.789115 7.289157 1.055152 -17.233051 -16.671004 -14.864781 -121.227200 -60.119293 160.439443 -7.254432 -0.351211 -17.653665 -0.705034 5.959232 1.909621 34.547460 -11.530893 5.961241 114.689674 -57.693703 -153.450144 0.330301 5.043156 -0.219115 -19.016358 -67.658984 12.092000 -30.889563 74.419070 -30.541005 -1.989843 -8.514817 -2.823924 -0.206486 0.729198 -0.038499 -1.659027 -70.768864 15.760743 44.664190 62.278945 37.718953 -17.528236 -8.676792 4.450612 -0.293004 -1.040990 -0.067932
-108.704523 57.552310 -5.927014 161.538254 -3.746610 0.168336 3.811263 5.130600 0.580420 0.153448 0.189674 -0.014776 0.222755 0.332394 -0.017763 3.283271 4.906669 -0.131931 1.828617 16.792091 -1.871289 4.030898 -4.516173 -4.095122 1.870098 7.293229 1.075924 -16.924969 -16.607195 -15.073529 -120.996666 -60.764870 159.732468 -7.288317 -0.435005 -17.895275 -0.759455 5.931418 1.847131 34.034908 -11.282033 5.980547 114.529223 -58.027226 -153.132555 0.244533 5.146021 -0.172881 -18.935484 -67.643935 11.983434 -31.020832 74.401880 -30.640669 -2.022930 -8.555711 -2.798593 -0.192217 0.764188 -0.026718 -1.776566 -70.771238 15.808668 44.666955 62.281609 37.702982 -17.530455 -8.680951 4.468867 -0.285792 -1.029169 -0.059302
-108.719926 57.549808 -5.935121 161.625763 -3.756555 0.170634 3.801557 5.141026 0.565204 0.174679 0.185903 -0.023218 0.224113 0.333296 -0.018176 3.296304 4.910714 -0.136386 1.678224 16.725317 -1.813686 3.735655 -4.650579 -3.939738 1.968075 7.319071 1.100984 -16.560850 -16.569006 -15.280263 -120.672163 -61.513940 158.868524 -7.336872 -0.523057 -18.210451 -0.827455 5.927323 1.766912 33.521419 -11.026219 5.978739 114.302749 -58.401575 -152.746476 0.142348 5.257688 -0.128709 -18.874916 -67.640766 11.866606 -31.069143 74.404755 -30.698388 -2.030740 -8.582744 -2.791857 -0.210253 0.787900 -0.002051 -1.820180 -70.765349 15.771304 44.699775 62.279236 37.701253 -17.539724 -8.682980 4.497288 -0.299644 -1.021211 -0.080592
-108.738738 57.546051 -5.935897 161.731461 -3.732703 0.162182 3.743793 5.113355 0.557817 0.218146 0.183521 -0.039435 0.181731 0.336079 -0.003295 3.346413 4.912303 -0.159012 1.511580 16.657522 -1.742607 3.405447 -4.787685 -3.753442 2.075907 7.363123 1.128711 -16.122023 -16.570911 -15.482101 -120.194055 -62.371427 157.789318 -7.400100 -0.611274 -18.582419 -0.908328 5.944523 1.675232 33.012950 -10.766750 5.953309 114.004197 -58.798659 -152.304229 0.026333 5.377094 -0.085600 -18.878728 -67.668920 11.796043 -31.138525 74.400884 -30.754284 -2.067061 -8.604583 -2.790878 -0.182628 0.809048 0.013074 -1.844071 -70.804100 15.718392 44.749032 62.265057 37.691494 -17.560280 -8.657741 4.581105 -0.340211 -1.028641 -0.112428
-108.749635 57.542190 -5.939084 161.802107 -3.751678 0.100544 3.830196 5.116991 0.577024 0.146808 0.188520 -0.019036 0.206166 0.335322 -0.011210 3.324956 4.917768 -0.160645 1.327767 16.584608 -1.657113 3.038204 -4.934677 -3.534079 2.194142 7.425361 1.156970 -15.596788 -16.629054 -15.679582 -119.467674 -63.329133 156.400669 -7.476705 -0.700593 -18.976217 -1.002252 5.980484 1.571799 32.517414 -10.503690 5.903321 113.648711 -59.201667 -151.826501 -0.097327 5.496384 -0.051834 -18.939646 -67.639602 11.827491 -31.218580 74.395952 -30.820265 -2.096221 -8.602406 -2.775141 -0.167971 0.805743 0.011849 -1.882331 -70.808808 15.741660 44.673066 62.285959 37.650215 -17.630240 -8.671122 4.570624 -0.274851 -1.003611 -0.083650
-108.769804 57.537950 -5.940265 161.896035 -3.756334 0.071384 3.812226 5.114416 0.572638 0.140623 0.186404 -0.021735 0.225051 0.335018 -0.020109 3.300006 4.924564 -0.163080 1.126957 16.503829 -1.558113 2.634447 -5.096468 -3.283372 2.321427 7.502034 1.189567 -14.980524 -16.745995 -15.882387 -118.367603 -64.354969 154.588339 -7.566285 -0.779218 -19.373541 -1.104726 6.044750 1.457402 32.039539 -10.240495 5.823037 113.244821 -59.603395 -151.327567 -0.218278 5.608957 -0.034082 -18.958754 -67.637818 11.795078 -31.270706 74.394900 -30.887921 -2.122084 -8.605850 -2.726922 -0.172554 0.812496 0.000631 -1.871438 -70.822400 15.680380 44.644255 62.285160 37.603835 -17.651974 -8.665385 4.611302 -0.299831 -0.991426 -0.079406
-108.801365 57.533650 -5.941488 161.977957 -3.754268 0.093189 3.745788 5.112578 0.537573 0.153424 0.183030 -0.032124 0.247585 0.326582 -0.042710 3.284320 4.931148 -0.175556 0.910180 16.413127 -1.446892 2.196568 -5.276543 -3.004104 2.456348 7.582765 1.235575 -14.272782 -16.910258 -16.105828 -116.755569 -65.397207 152.228950 -7.674388 -0.819976 -19.784531 -1.214053 6.151832 1.334304 31.577365 -9.981193 5.706285 112.793357 -60.001554 -150.814544 -0.322780 5.709149 -0.019140 -18.855885 -67.662290 11.654086 -31.284964 74.394331 -30.957324 -2.133913 -8.619455 -2.663306 -0.217871 0.839349 0.003380 -1.761004 -70.836587 15.511916 44.637599 62.278328 37.558298 -17.695395 -8.644348 4.651213 -0.291803 -0.991262 -0.074642
